<svg class="svg-icon" style="width: 1em; height: 1em;vertical-align: middle;fill: currentColor;overflow: hidden;" viewBox="0 0 1024 1024" version="1.1" xmlns="http://www.w3.org/2000/svg"><path d="M780.093433 65.267493 243.991502 65.267493c-98.774631 0-178.700985 79.969333-178.700985 178.615027l0 536.102954c0 98.730629 79.925331 178.744987 178.700985 178.744987l536.102954 0c98.600669 0 178.615027-80.013335 178.615027-178.744987L958.709483 243.88252C958.70846 145.236825 878.695125 65.267493 780.093433 65.267493zM869.44546 735.309972c0 74.03825-60.033281 134.113487-134.027529 134.113487L288.667004 869.423459c-73.994248 0-134.115534-60.075237-134.115534-134.113487L154.55147 288.643979c0-74.080206 60.121286-134.069485 134.115534-134.069485l446.750927 0c73.994248 0 134.027529 59.989279 134.027529 134.069485L869.44546 735.309972zM377.927957 512.020466c24.781406 0 44.675502 19.939121 44.675502 44.676525 0 24.6494-19.894096 44.675502-44.675502 44.675502-24.605398 0-44.587498-20.026102-44.587498-44.675502C333.340459 531.959587 353.322559 512.020466 377.927957 512.020466zM512.041444 379.346771 288.667004 243.88252l44.673455 0L467.367989 243.88252l178.61298 0 0 44.76146L512.041444 377.950981 512.041444 379.346771zM512.041444 556.696991l133.939525 89.307002 0 44.673455-89.263 0 0 136.819109L243.991502 690.678472l0-44.673455 268.049942 112.777553L512.041444 556.696991zM690.656471 422.627507l89.436962 0 0 89.39296-89.436962 0 0 89.352027L512.041444 467.259006l178.615027-133.939525L690.656471 422.627507z"  /></svg>